<svg id="visual" viewBox="0 0 960 540" width="960" height="540" xmlns="http://www.w3.org/2000/svg" xmlns:xlink="http://www.w3.org/1999/xlink" version="1.1"><rect x="0" y="0" width="960" height="540" fill="#001220"></rect><defs><linearGradient id="grad1_0" x1="43.8%" y1="0%" x2="100%" y2="100%"><stop offset="14.444444444444446%" stop-color="#0e364e" stop-opacity="1"></stop><stop offset="85.55555555555554%" stop-color="#0e364e" stop-opacity="1"></stop></linearGradient></defs><defs><linearGradient id="grad1_1" x1="43.8%" y1="0%" x2="100%" y2="100%"><stop offset="14.444444444444446%" stop-color="#0e364e" stop-opacity="1"></stop><stop offset="85.55555555555554%" stop-color="#0a2a3e" stop-opacity="1"></stop></linearGradient></defs><defs><linearGradient id="grad1_2" x1="43.8%" y1="0%" x2="100%" y2="100%"><stop offset="14.444444444444446%" stop-color="#061e2f" stop-opacity="1"></stop><stop offset="85.55555555555554%" stop-color="#0a2a3e" stop-opacity="1"></stop></linearGradient></defs><defs><linearGradient id="grad1_3" x1="43.8%" y1="0%" x2="100%" y2="100%"><stop offset="14.444444444444446%" stop-color="#061e2f" stop-opacity="1"></stop><stop offset="85.55555555555554%" stop-color="#001220" stop-opacity="1"></stop></linearGradient></defs><defs><linearGradient id="grad2_0" x1="0%" y1="0%" x2="56.3%" y2="100%"><stop offset="14.444444444444446%" stop-color="#0e364e" stop-opacity="1"></stop><stop offset="85.55555555555554%" stop-color="#0e364e" stop-opacity="1"></stop></linearGradient></defs><defs><linearGradient id="grad2_1" x1="0%" y1="0%" x2="56.3%" y2="100%"><stop offset="14.444444444444446%" stop-color="#0a2a3e" stop-opacity="1"></stop><stop offset="85.55555555555554%" stop-color="#0e364e" stop-opacity="1"></stop></linearGradient></defs><defs><linearGradient id="grad2_2" x1="0%" y1="0%" x2="56.3%" y2="100%"><stop offset="14.444444444444446%" stop-color="#0a2a3e" stop-opacity="1"></stop><stop offset="85.55555555555554%" stop-color="#061e2f" stop-opacity="1"></stop></linearGradient></defs><defs><linearGradient id="grad2_3" x1="0%" y1="0%" x2="56.3%" y2="100%"><stop offset="14.444444444444446%" stop-color="#001220" stop-opacity="1"></stop><stop offset="85.55555555555554%" stop-color="#061e2f" stop-opacity="1"></stop></linearGradient></defs><g transform="translate(960, 0)"><path d="M0 351C-17.1 330.7 -34.2 310.4 -54.5 309.2C-74.9 308.1 -98.5 326.1 -119.7 328.9C-140.9 331.6 -159.7 319.1 -175.5 304C-191.3 288.8 -203.9 271.1 -210.8 251.3C-217.7 231.4 -218.9 209.4 -236.7 198.6C-254.6 187.8 -289.1 188.3 -302.2 174.5C-315.3 160.7 -306.9 132.8 -304.5 110.8C-302 88.8 -305.4 72.9 -314.2 55.4C-322.9 37.9 -336.9 19 -351 0L0 0Z" fill="#041827"></path><path d="M0 263.3C-12.8 248 -25.6 232.8 -40.9 231.9C-56.2 231.1 -73.9 244.6 -89.8 246.7C-105.7 248.7 -119.8 239.3 -131.6 228C-143.4 216.6 -153 203.3 -158.1 188.4C-163.3 173.6 -164.1 157.1 -177.5 149C-190.9 140.9 -216.9 141.2 -226.7 130.9C-236.5 120.6 -230.2 99.6 -228.3 83.1C-226.5 66.6 -229.1 54.6 -235.6 41.5C-242.2 28.4 -252.7 14.2 -263.2 0L0 0Z" fill="#082436"></path><path d="M0 175.5C-8.5 165.3 -17.1 155.2 -27.3 154.6C-37.4 154 -49.2 163.1 -59.9 164.4C-70.5 165.8 -79.9 159.6 -87.7 152C-95.6 144.4 -102 135.6 -105.4 125.6C-108.9 115.7 -109.4 104.7 -118.4 99.3C-127.3 93.9 -144.6 94.1 -151.1 87.3C-157.7 80.4 -153.5 66.4 -152.2 55.4C-151 44.4 -152.7 36.4 -157.1 27.7C-161.4 19 -168.5 9.5 -175.5 0L0 0Z" fill="#0c3046"></path><path d="M0 87.8C-4.3 82.7 -8.5 77.6 -13.6 77.3C-18.7 77 -24.6 81.5 -29.9 82.2C-35.2 82.9 -39.9 79.8 -43.9 76C-47.8 72.2 -51 67.8 -52.7 62.8C-54.4 57.9 -54.7 52.4 -59.2 49.7C-63.6 47 -72.3 47.1 -75.6 43.6C-78.8 40.2 -76.7 33.2 -76.1 27.7C-75.5 22.2 -76.4 18.2 -78.5 13.8C-80.7 9.5 -84.2 4.7 -87.7 0L0 0Z" fill="#0e364e"></path></g><g transform="translate(0, 540)"><path d="M0 -351C16.7 -328.7 33.3 -306.5 54 -306.3C74.7 -306.1 99.3 -327.9 120 -329.8C140.7 -331.8 157.5 -313.9 172 -297.9C186.5 -281.9 198.9 -267.8 215.3 -256.6C231.8 -245.4 252.5 -237 265.1 -222.4C277.7 -207.8 282.2 -186.8 291 -168C299.8 -149.2 312.7 -132.4 310.1 -112.9C307.5 -93.3 289.3 -71 293.5 -51.7C297.7 -32.5 324.3 -16.2 351 0L0 0Z" fill="#041827"></path><path d="M0 -263.2C12.5 -246.6 25 -229.9 40.5 -229.7C56 -229.5 74.5 -245.9 90 -247.4C105.6 -248.8 118.1 -235.4 129 -223.4C139.9 -211.4 149.1 -200.9 161.5 -192.5C173.9 -184.1 189.3 -177.8 198.8 -166.8C208.2 -155.8 211.7 -140.1 218.2 -126C224.8 -111.9 234.5 -99.3 232.6 -84.6C230.6 -70 216.9 -53.3 220.1 -38.8C223.3 -24.4 243.3 -12.2 263.3 0L0 0Z" fill="#082436"></path><path d="M0 -175.5C8.3 -164.4 16.7 -153.2 27 -153.1C37.3 -153 49.7 -163.9 60 -164.9C70.4 -165.9 78.7 -156.9 86 -149C93.3 -141 99.4 -133.9 107.7 -128.3C115.9 -122.7 126.2 -118.5 132.5 -111.2C138.8 -103.9 141.1 -93.4 145.5 -84C149.9 -74.6 156.4 -66.2 155 -56.4C153.7 -46.7 144.6 -35.5 146.7 -25.9C148.8 -16.2 162.2 -8.1 175.5 0L0 0Z" fill="#0c3046"></path><path d="M0 -87.7C4.2 -82.2 8.3 -76.6 13.5 -76.6C18.7 -76.5 24.8 -82 30 -82.5C35.2 -82.9 39.4 -78.5 43 -74.5C46.6 -70.5 49.7 -67 53.8 -64.2C58 -61.4 63.1 -59.3 66.3 -55.6C69.4 -51.9 70.6 -46.7 72.7 -42C74.9 -37.3 78.2 -33.1 77.5 -28.2C76.9 -23.3 72.3 -17.8 73.4 -12.9C74.4 -8.1 81.1 -4.1 87.8 0L0 0Z" fill="#0e364e"></path></g></svg>